<svg width="105" height="102" viewBox="0 0 105 102" fill="none" xmlns="http://www.w3.org/2000/svg">
<path opacity="0.948" fill-rule="evenodd" clip-rule="evenodd" d="M71.375 5.12479C73.9357 4.74089 76.2692 5.28257 78.375 6.74979C84.8332 13.2081 91.2917 19.6665 97.75 26.1248C100.693 30.7173 100.151 34.8423 96.125 38.4998C85.29 45.9153 74.9567 53.9985 65.125 62.7498C71.0787 62.267 77.037 61.7253 83 61.1248C85.3867 61.0945 86.4702 62.2613 86.25 64.6248C84.8332 67.126 83.2915 69.5428 81.625 71.8748C83.0342 74.0755 84.4927 76.2423 86 78.3748C86.744 81.4643 85.5355 82.8393 82.375 82.4998C73.1957 80.942 64.029 79.442 54.875 77.9998C56.4825 87.0193 58.024 96.0608 59.5 105.125C60.0012 108.291 58.7095 109.582 55.625 109C53.375 107.542 51.125 106.083 48.875 104.625C46.625 106.083 44.375 107.542 42.125 109C39.5997 109.696 38.2665 108.737 38.125 106.125C38.7502 100.123 39.292 94.1233 39.75 88.1248C30.9987 97.9565 22.9155 108.29 15.5 119.125C11.82 123.128 7.69499 123.67 3.12499 120.75C-3.50708 114.201 -10.0487 107.576 -16.5 100.875C-18.6902 96.8155 -18.2319 93.1073 -15.125 89.7498C-7.18851 84.5643 0.394815 78.8978 7.62499 72.7498C26.4807 56.8798 43.439 39.2548 58.5 19.8748C61.3475 15.9435 64.0975 11.9435 66.75 7.87479C68.0995 6.59742 69.641 5.68074 71.375 5.12479ZM72.625 10.6248C73.4485 10.5645 74.1985 10.7729 74.875 11.2498C81.0832 17.4581 87.2917 23.6665 93.5 29.8748C94.465 31.6508 94.09 33.109 92.375 34.2498C79.9302 42.8158 68.097 52.1908 56.875 62.3748C51.92 57.545 47.0035 52.67 42.125 47.7498C52.7415 36.4608 62.3665 24.4191 71 11.6248C71.5237 11.2186 72.0652 10.8853 72.625 10.6248ZM38.125 51.8748C43.0365 56.6195 47.8697 61.4528 52.625 66.3748C49.625 69.5415 46.5417 72.6248 43.375 75.6248C38.5035 70.8783 33.67 66.0865 28.875 61.2498C32.176 58.3238 35.2595 55.1988 38.125 51.8748ZM24.625 65.1248C29.6197 69.9528 34.5365 74.8695 39.375 79.8748C29.191 91.0968 19.816 102.93 11.25 115.375C10.2945 116.76 9.00274 117.218 7.37499 116.75C0.923641 110.549 -5.45136 104.257 -11.75 97.8748C-12.6224 96.4885 -12.4974 95.197 -11.375 93.9998C1.41874 85.3908 13.4187 75.7658 24.625 65.1248ZM77.625 67.3748C77.068 68.4028 76.443 69.4028 75.75 70.3748C75.1815 71.7145 75.348 72.9645 76.25 74.1248C76.625 74.6665 77 75.208 77.375 75.7498C69.9332 74.7595 62.5165 73.5513 55.125 72.1248C56.0665 71.111 57.0665 70.1528 58.125 69.2498C64.6155 68.509 71.1155 67.884 77.625 67.3748ZM52.875 100.375C51.6747 99.4413 50.3412 98.7745 48.875 98.3748C47.2895 98.7928 45.8727 99.5428 44.625 100.625C44.5417 100.25 44.4582 99.8748 44.375 99.4998C44.9917 93.374 45.6167 87.249 46.25 81.1248C47.1917 79.994 48.1917 78.9105 49.25 77.8748C50.54 85.3648 51.7482 92.8648 52.875 100.375Z" fill="#F97316" fill-opacity="0.2"/>
</svg>
