<svg width="128" height="128" viewBox="0 0 128 128" fill="none" xmlns="http://www.w3.org/2000/svg">
<path opacity="0.948" fill-rule="evenodd" clip-rule="evenodd" d="M94.375 5.12528C96.9357 4.74138 99.2692 5.28306 101.375 6.75028C107.833 13.2086 114.292 19.667 120.75 26.1253C123.693 30.7178 123.151 34.8428 119.125 38.5003C108.29 45.9158 97.9567 53.999 88.125 62.7503C94.0787 62.2675 100.037 61.7258 106 61.1253C108.387 61.095 109.47 62.2618 109.25 64.6253C107.833 67.1265 106.291 69.5433 104.625 71.8753C106.034 74.076 107.493 76.2428 109 78.3753C109.744 81.4648 108.535 82.8398 105.375 82.5003C96.1957 80.9425 87.029 79.4425 77.875 78.0003C79.4825 87.0198 81.024 96.0613 82.5 105.125C83.0012 108.291 81.7095 109.583 78.625 109C76.375 107.542 74.125 106.084 71.875 104.625C69.625 106.084 67.375 107.542 65.125 109C62.5997 109.696 61.2665 108.738 61.125 106.125C61.7502 100.124 62.292 94.1238 62.75 88.1253C53.9987 97.957 45.9155 108.29 38.5 119.125C34.82 123.129 30.695 123.671 26.125 120.75C19.4929 114.202 12.9513 107.577 6.49999 100.875C4.30979 96.816 4.76812 93.1078 7.87499 89.7503C15.8115 84.5648 23.3948 78.8983 30.625 72.7503C49.4807 56.8803 66.439 39.2553 81.5 19.8753C84.3475 15.944 87.0975 11.944 89.75 7.87528C91.0995 6.59791 92.641 5.68123 94.375 5.12528ZM95.625 10.6253C96.4485 10.565 97.1985 10.7734 97.875 11.2503C104.083 17.4586 110.292 23.667 116.5 29.8753C117.465 31.6513 117.09 33.1095 115.375 34.2503C102.93 42.8163 91.097 52.1913 79.875 62.3753C74.92 57.5455 70.0035 52.6705 65.125 47.7503C75.7415 36.4613 85.3665 24.4196 94 11.6253C94.5237 11.2191 95.0652 10.8858 95.625 10.6253ZM61.125 51.8753C66.0365 56.62 70.8697 61.4533 75.625 66.3753C72.625 69.542 69.5417 72.6253 66.375 75.6253C61.5035 70.8788 56.67 66.087 51.875 61.2503C55.176 58.3243 58.2595 55.1993 61.125 51.8753ZM47.625 65.1253C52.6197 69.9533 57.5365 74.87 62.375 79.8753C52.191 91.0973 42.816 102.931 34.25 115.375C33.2945 116.761 32.0027 117.219 30.375 116.75C23.9236 110.549 17.5486 104.257 11.25 97.8753C10.3776 96.489 10.5026 95.1975 11.625 94.0003C24.4187 85.3913 36.4187 75.7663 47.625 65.1253ZM100.625 67.3753C100.068 68.4033 99.443 69.4033 98.75 70.3753C98.1815 71.715 98.348 72.965 99.25 74.1253C99.625 74.667 100 75.2085 100.375 75.7503C92.9332 74.76 85.5165 73.5518 78.125 72.1253C79.0665 71.1115 80.0665 70.1533 81.125 69.2503C87.6155 68.5095 94.1155 67.8845 100.625 67.3753ZM75.875 100.375C74.6747 99.4418 73.3412 98.775 71.875 98.3753C70.2895 98.7933 68.8727 99.5433 67.625 100.625C67.5417 100.25 67.4582 99.8753 67.375 99.5003C67.9917 93.3745 68.6167 87.2495 69.25 81.1253C70.1917 79.9945 71.1917 78.911 72.25 77.8753C73.54 85.3653 74.7482 92.8653 75.875 100.375Z" fill="white" fill-opacity="0.3"/>
</svg>
